<svg width="44" height="44" viewBox="0 0 44 44" fill="none" xmlns="http://www.w3.org/2000/svg">
<mask id="mask0_1_511" style="mask-type:alpha" maskUnits="userSpaceOnUse" x="0" y="0" width="44" height="44">
<rect width="44" height="44" fill="#D9D9D9"/>
</mask>
<g mask="url(#mask0_1_511)">
<path d="M7.33317 36.6673C6.32484 36.6673 5.46195 36.3086 4.7445 35.5912C4.02584 34.8725 3.6665 34.009 3.6665 33.0007V11.0007C3.6665 9.99232 4.02584 9.12943 4.7445 8.41198C5.46195 7.69332 6.32484 7.33398 7.33317 7.33398H29.3332C30.3415 7.33398 31.205 7.69332 31.9237 8.41198C32.6411 9.12943 32.9998 9.99232 32.9998 11.0007V19.2507L40.3332 11.9173V32.084L32.9998 24.7507V33.0007C32.9998 34.009 32.6411 34.8725 31.9237 35.5912C31.205 36.3086 30.3415 36.6673 29.3332 36.6673H7.33317ZM7.33317 33.0007H29.3332V11.0007H7.33317V33.0007ZM18.3332 29.334L20.6248 24.2923L25.6665 22.0007L20.6248 19.709L18.3332 14.6673L16.0415 19.709L10.9998 22.0007L16.0415 24.2923L18.3332 29.334Z" fill="#083349"/>
</g>
</svg>
