<svg width="44" height="44" viewBox="0 0 44 44" fill="none" xmlns="http://www.w3.org/2000/svg">
<mask id="mask0_1_506" style="mask-type:alpha" maskUnits="userSpaceOnUse" x="0" y="0" width="44" height="44">
<rect width="44" height="44" fill="#D9D9D9"/>
</mask>
<g mask="url(#mask0_1_506)">
<path d="M33 33C33.7639 33 34.4129 32.7323 34.947 32.197C35.4823 31.6629 35.75 31.0139 35.75 30.25C35.75 29.4861 35.4823 28.8371 34.947 28.303C34.4129 27.7677 33.7639 27.5 33 27.5C32.2361 27.5 31.5871 27.7677 31.053 28.303C30.5177 28.8371 30.25 29.4861 30.25 30.25C30.25 31.0139 30.5177 31.6629 31.053 32.197C31.5871 32.7323 32.2361 33 33 33ZM33 38.5C33.9167 38.5 34.7722 38.2861 35.5667 37.8583C36.3611 37.4306 37.0181 36.8347 37.5375 36.0708C36.8347 35.6431 36.1014 35.3302 35.3375 35.1322C34.5736 34.9329 33.7944 34.8333 33 34.8333C32.2056 34.8333 31.4264 34.9329 30.6625 35.1322C29.8986 35.3302 29.1653 35.6431 28.4625 36.0708C28.9819 36.8347 29.6389 37.4306 30.4333 37.8583C31.2278 38.2861 32.0833 38.5 33 38.5ZM9.16667 38.5C8.15833 38.5 7.29483 38.1413 6.57617 37.4238C5.85872 36.7052 5.5 35.8417 5.5 34.8333V9.16667C5.5 8.15833 5.85872 7.29483 6.57617 6.57617C7.29483 5.85872 8.15833 5.5 9.16667 5.5H34.8333C35.8417 5.5 36.7052 5.85872 37.4238 6.57617C38.1413 7.29483 38.5 8.15833 38.5 9.16667V21.45C37.9194 21.175 37.3236 20.9379 36.7125 20.7387C36.1014 20.5407 35.475 20.3958 34.8333 20.3042V9.16667H9.16667V34.8333H20.2583C20.35 35.5056 20.4954 36.1472 20.6947 36.7583C20.8927 37.3694 21.1292 37.95 21.4042 38.5H9.16667ZM9.16667 34.8333V9.16667V20.3042V20.1667V34.8333ZM12.8333 31.1667H20.3042C20.3958 30.525 20.5407 29.8986 20.7387 29.2875C20.9379 28.6764 21.1597 28.0806 21.4042 27.5H12.8333V31.1667ZM12.8333 23.8333H24.0167C24.9944 22.9167 26.0865 22.1528 27.2928 21.5417C28.5004 20.9306 29.7917 20.5181 31.1667 20.3042V20.1667H12.8333V23.8333ZM12.8333 16.5H31.1667V12.8333H12.8333V16.5ZM33 42.1667C30.4639 42.1667 28.3024 41.2732 26.5155 39.4863C24.7274 37.6982 23.8333 35.5361 23.8333 33C23.8333 30.4639 24.7274 28.3018 26.5155 26.5137C28.3024 24.7268 30.4639 23.8333 33 23.8333C35.5361 23.8333 37.6982 24.7268 39.4863 26.5137C41.2732 28.3018 42.1667 30.4639 42.1667 33C42.1667 35.5361 41.2732 37.6982 39.4863 39.4863C37.6982 41.2732 35.5361 42.1667 33 42.1667Z" fill="#083349"/>
</g>
</svg>
