<svg width="44" height="44" viewBox="0 0 44 44" fill="none" xmlns="http://www.w3.org/2000/svg">
<mask id="mask0_1_516" style="mask-type:alpha" maskUnits="userSpaceOnUse" x="0" y="0" width="44" height="44">
<rect width="44" height="44" fill="#D9D9D9"/>
</mask>
<g mask="url(#mask0_1_516)">
<path d="M14.6668 32.9993H29.3335V29.3327H14.6668V32.9993ZM14.6668 25.666H29.3335V21.9993H14.6668V25.666ZM11.0002 40.3327C9.99183 40.3327 9.12894 39.974 8.4115 39.2565C7.69283 38.5378 7.3335 37.6744 7.3335 36.666V7.33268C7.3335 6.32435 7.69283 5.46085 8.4115 4.74218C9.12894 4.02474 9.99183 3.66602 11.0002 3.66602H25.6668L36.6668 14.666V36.666C36.6668 37.6744 36.3081 38.5378 35.5907 39.2565C34.872 39.974 34.0085 40.3327 33.0002 40.3327H11.0002ZM23.8335 16.4993V7.33268H11.0002V36.666H33.0002V16.4993H23.8335Z" fill="#083349"/>
</g>
</svg>
