<svg width="44" height="44" viewBox="0 0 44 44" fill="none" xmlns="http://www.w3.org/2000/svg">
<mask id="mask0_1_501" style="mask-type:alpha" maskUnits="userSpaceOnUse" x="0" y="0" width="44" height="44">
<rect width="44" height="44" fill="#D9D9D9"/>
</mask>
<g mask="url(#mask0_1_501)">
<path d="M22.0002 31.166L29.3335 23.8327L26.7668 21.266L23.8335 24.1077V16.4993H20.1668V24.1077L17.2335 21.266L14.6668 23.8327L22.0002 31.166ZM11.0002 40.3327C9.99183 40.3327 9.12894 39.974 8.4115 39.2565C7.69283 38.5378 7.3335 37.6744 7.3335 36.666V14.666L18.3335 3.66602H33.0002C34.0085 3.66602 34.872 4.02474 35.5907 4.74218C36.3081 5.46085 36.6668 6.32435 36.6668 7.33268V36.666C36.6668 37.6744 36.3081 38.5378 35.5907 39.2565C34.872 39.974 34.0085 40.3327 33.0002 40.3327H11.0002ZM11.0002 36.666H33.0002V7.33268H19.8918L11.0002 16.2243V36.666Z" fill="white"/>
</g>
</svg>
