<svg width="13" height="13" viewBox="0 0 13 13" fill="none" xmlns="http://www.w3.org/2000/svg">
<path id="Vector" d="M12.5842 0.767568C12.6854 0.868735 12.7643 0.979513 12.8209 1.0999C12.8781 1.21978 12.9067 1.3556 12.9067 1.50735L12.9067 11.5228C12.9067 11.8263 12.8022 12.0825 12.5933 12.2914C12.3849 12.4998 12.129 12.604 11.8255 12.604C11.522 12.604 11.2691 12.5029 11.0667 12.3005C10.8644 12.0982 10.7632 11.8453 10.7632 11.5418L10.7632 4.10606L2.26524 12.604C2.05026 12.819 1.80038 12.9232 1.5156 12.9166C1.23132 12.9106 0.981694 12.8001 0.766715 12.5851C0.551737 12.3701 0.443995 12.1172 0.443489 11.8263C0.443994 11.5355 0.551736 11.2826 0.766715 11.0676L9.24573 2.58856L1.80999 2.58857C1.50649 2.58857 1.25358 2.4874 1.05124 2.28507C0.848912 2.08273 0.747745 1.82982 0.747745 1.52632C0.747745 1.22282 0.851946 0.966867 1.06035 0.758464C1.26926 0.549555 1.52546 0.445101 1.82896 0.445102L11.8444 0.445102C11.9962 0.445102 12.132 0.473681 12.2519 0.530839C12.3723 0.587493 12.4831 0.666401 12.5842 0.767568Z" fill="#3EA9E0"/>
</svg>
